<svg width="100" height="36" viewBox="0 0 100 36" fill="none" xmlns="http://www.w3.org/2000/svg">
<g id="Group 1030">
<path id="Vector" d="M40.6944 25.6334C37.4494 25.6334 34.6565 24.3256 33.5405 22.3912H33.406C33.4835 23.0636 33.5131 23.7406 33.4948 24.4172V31.1075C33.4965 31.6001 33.3501 32.0818 33.0745 32.49C32.799 32.8983 32.407 33.2142 31.9495 33.3968L27.2336 35.2826V1.57902H33.0455V2.65784C33.0505 3.32002 33.02 3.982 32.9539 4.6409H33.0884C34.5764 2.35165 37.458 0.85791 40.972 0.85791C47.505 0.85791 52.2351 5.94864 52.2351 13.2456C52.2351 20.5426 47.3161 25.6334 40.6944 25.6334ZM33.2544 13.1998C33.2544 17.2547 35.867 20.0476 39.5498 20.0476C43.2327 20.0476 45.9025 17.2547 45.9025 13.1998C45.9025 9.14501 43.2441 6.35212 39.5498 6.35212C35.8555 6.35212 33.2601 9.14501 33.2601 13.1998H33.2544Z" fill="#4E0F8A"/>
<path id="Vector_2" d="M66.6431 25.6334C59.2545 25.6334 54.1208 20.4081 54.1208 13.2456C54.1208 5.99156 59.3003 0.85791 66.5544 0.85791C73.3992 0.85791 78.0006 6.03735 78.0006 13.2456C78.0095 13.9102 77.949 14.5738 77.8203 15.2258H60.6509C61.3263 18.2906 63.4438 20.0476 66.6889 20.0476C69.3015 20.0476 71.0127 19.2377 72.5436 17.3005L76.1921 21.1292C73.8056 24.2369 70.6149 25.6334 66.6431 25.6334ZM60.6509 11.2168H71.8111C71.3618 8.2894 69.3358 6.35212 66.4056 6.35212C63.3551 6.35212 61.2834 8.20069 60.6509 11.2168Z" fill="#4E0F8A"/>
<path id="Vector_3" d="M90.0445 0.85791C95.8106 0.85791 99.9999 4.55219 99.9999 10.138V24.9122H93.7045V9.9577C93.7146 9.48167 93.6284 9.0085 93.4509 8.56666C93.2735 8.12483 93.0086 7.72344 92.672 7.38663C92.3355 7.04982 91.9343 6.78454 91.4926 6.60676C91.0509 6.42898 90.5778 6.34237 90.1018 6.35212C87.9842 6.35212 86.4533 7.88306 86.4533 9.9577V24.9122H80.1578V9.91191C80.1349 4.50641 84.2785 0.85791 90.0445 0.85791Z" fill="#4E0F8A"/>
<path id="Vector_4" d="M12.5251 6.93595C14.1931 6.94123 15.7913 7.6062 16.9708 8.78568C18.1503 9.96516 18.8152 11.5634 18.8205 13.2314H25.0273C25.0273 9.91258 23.7089 6.72969 21.3621 4.38293C19.0153 2.03617 15.8325 0.717773 12.5136 0.717773C9.19481 0.717773 6.01191 2.03617 3.66515 4.38293C1.31839 6.72969 0 9.91258 0 13.2314H6.22963C6.23491 11.5634 6.89987 9.96516 8.07936 8.78568C9.25884 7.6062 10.857 6.94123 12.5251 6.93595Z" fill="#4E0F8A"/>
<path id="Vector_5" d="M12.5248 19.5498C11.499 19.5507 10.4886 19.3008 9.58137 18.822C8.67419 18.3433 7.89774 17.65 7.31957 16.8027L2.19165 20.3053C3.33859 21.9826 4.87673 23.3554 6.67314 24.305C8.46956 25.2546 10.4702 25.7525 12.5022 25.7556C14.5341 25.7587 16.5363 25.2669 18.3356 24.3228C20.1349 23.3787 21.6772 22.0106 22.8293 20.3368L17.7214 16.817C17.1415 17.6596 16.3656 18.3486 15.4603 18.8247C14.555 19.3008 13.5476 19.5496 12.5248 19.5498Z" fill="#2DC28D"/>
</g>
</svg>
