<svg width="50" height="50" viewBox="0 0 50 50" fill="none" xmlns="http://www.w3.org/2000/svg">
<path d="M30.4688 48.4374V44.1405C30.4688 42.6171 31.0547 41.1718 32.0703 40.078L42.5781 28.9452C44.0234 27.4218 44.1016 25.0389 42.6953 23.5155C41.1328 21.8358 38.5156 21.8749 36.9922 23.4764L31.7187 29.0624C32.2266 28.3593 32.7344 27.6952 33.2812 27.0311L43.0859 15.703C44.6484 13.9061 44.4531 11.2108 42.6562 9.64832C40.8594 8.08582 38.1641 8.28113 36.6016 10.078L26.7969 21.4061C26.5625 21.6796 26.3281 21.953 26.0938 22.2655C26.7578 21.0546 27.5 19.8436 28.3203 18.7108L35.5469 8.32019C36.9141 6.36707 36.4063 3.71082 34.4922 2.34363C32.5391 0.976441 29.8828 1.48425 28.5156 3.39832L21.25 13.7889C20.8594 14.3749 20.4688 14.9608 20.0781 15.5468L24.0234 7.96863C25.1172 5.85925 24.4141 3.203 22.3438 2.07019C20.2344 0.898317 17.5781 1.71863 16.4844 3.86707L12.4609 11.6405C10.1953 15.9374 8.59375 20.5858 7.65625 25.3514L6.48438 30.9764C5.58594 35.3124 5.27344 39.7655 5.58594 44.1796L4.6875 48.4374V49.6093H30.4688V48.4374Z" fill="#EEEEEE"/>
<path d="M30.4688 49.6094C29.8047 49.6094 29.2969 49.1016 29.2969 48.4375V44.1407C29.2969 42.3047 30 40.586 31.25 39.2579L41.8359 28.0469C42.8516 26.9532 42.8125 25.2344 41.7188 24.1797C41.1719 23.6719 40.5078 23.3985 39.7656 23.4375C39.0234 23.4766 38.3594 23.75 37.8516 24.2969L32.5781 29.8829C32.1484 30.3125 31.4453 30.3907 30.9766 30C30.5078 29.6094 30.3906 28.9063 30.7422 28.4375C31.2891 27.6954 31.8359 26.9532 32.3828 26.3282L42.1875 15C43.3203 13.711 43.1641 11.7188 41.875 10.586C40.5859 9.45316 38.5938 9.60941 37.4609 10.8985L27.6563 22.2266C27.4609 22.461 27.2656 22.6953 27.0703 22.9688L26.9922 23.0469C26.6016 23.5157 25.9375 23.6328 25.4297 23.2813C24.9219 22.9297 24.7656 22.2657 25.0781 21.7578C25.7813 20.4688 26.5625 19.2578 27.3438 18.086L34.5703 7.69535C35.0391 6.99222 35.2344 6.17191 35.0781 5.3516C34.9219 4.53128 34.4922 3.82816 33.7891 3.32035C33.0859 2.8516 32.2656 2.65629 31.4453 2.81254C30.625 2.96879 29.9219 3.39847 29.4141 4.1016L22.2266 14.4922C21.875 15 21.4844 15.5469 21.0938 16.211C20.7422 16.7578 20.0781 16.9141 19.5313 16.6016C18.9844 16.2891 18.7891 15.586 19.0625 15.0391L23.0859 7.30472C23.4766 6.56254 23.5547 5.70316 23.2813 4.92191C23.0469 4.14066 22.5 3.4766 21.7578 3.08597C21.0156 2.69535 20.1563 2.61722 19.375 2.89066C18.5938 3.12504 17.9297 3.67191 17.5391 4.4141L13.4766 12.1875C11.2891 16.3672 9.6875 20.8985 8.78907 25.586C8.67188 26.211 8.04688 26.6407 7.42188 26.5235C6.79688 26.4063 6.36719 25.7813 6.48438 25.1563C7.46094 20.2735 9.10157 15.5469 11.4063 11.1328L15.4688 3.32035C16.1328 2.03129 17.2656 1.05472 18.6719 0.625035C20.0781 0.195347 21.5625 0.312535 22.8516 0.976597C24.1406 1.64066 25.1172 2.77347 25.5469 4.17972C25.6641 4.53128 25.7422 4.88285 25.7813 5.27347L27.5391 2.73441C28.3594 1.52347 29.6094 0.742222 31.0547 0.468785C32.5 0.195347 33.9453 0.54691 35.1563 1.36722C36.3672 2.18753 37.1484 3.43754 37.4219 4.88285C37.6172 6.05472 37.4609 7.18754 36.9531 8.24222C38.9453 6.99222 41.5625 7.14847 43.3984 8.75004C45.6641 10.7032 45.9375 14.1797 43.9844 16.4453L40 21.0938C41.25 21.1328 42.4219 21.6016 43.3594 22.461C45.3906 24.375 45.4688 27.6172 43.5547 29.6485L32.9688 40.8594C32.1484 41.7579 31.6797 42.8907 31.6797 44.1016V48.3985C31.6406 49.1016 31.1328 49.6094 30.4688 49.6094Z" fill="black" fill-opacity="0.6"/>
<path d="M16.1328 44.5312H36.6406C38.6328 44.5312 40.2344 42.9297 40.2344 40.9375V5.11719C40.2344 3.125 38.6328 1.52344 36.6406 1.52344L15.7031 1.5625C13.7109 1.5625 12.1094 3.16406 12.1094 5.15625L12.2266 40.6641C12.2266 42.7734 13.9844 44.5312 16.1328 44.5312Z" fill="#EEEEEE"/>
<path d="M26.5625 37.1094C26.0445 37.1094 25.5477 37.3151 25.1814 37.6814C24.8151 38.0477 24.6094 38.5445 24.6094 39.0625C24.6094 39.5805 24.8151 40.0773 25.1814 40.4436C25.5477 40.8099 26.0445 41.0156 26.5625 41.0156C27.0805 41.0156 27.5773 40.8099 27.9436 40.4436C28.3099 40.0773 28.5156 39.5805 28.5156 39.0625C28.5156 38.5445 28.3099 38.0477 27.9436 37.6814C27.5773 37.3151 27.0805 37.1094 26.5625 37.1094Z" fill="black" fill-opacity="0.6"/>
<path d="M36.6406 45.7031H22.8906C22.2266 45.7031 21.7187 45.1953 21.7187 44.5312C21.7187 43.8672 22.2266 43.3594 22.8906 43.3594H36.6406C37.9688 43.3594 39.0625 42.2656 39.0625 40.9375V5.15625C39.0625 3.82812 37.9688 2.73438 36.6406 2.73438H15.7031C14.375 2.73438 13.2812 3.82812 13.2812 5.15625V18.7109C13.2812 19.375 12.7734 19.8828 12.1094 19.8828C11.4453 19.8828 10.9375 19.375 10.9375 18.7109V5.15625C10.9375 2.53906 13.0859 0.390625 15.7031 0.390625H36.6797C39.2969 0.390625 41.4453 2.53906 41.4453 5.15625V40.9766C41.4062 43.5547 39.2578 45.7031 36.6406 45.7031Z" fill="black" fill-opacity="0.6"/>
<path d="M4.88278 48.4375C2.73435 39.2968 6.28903 31.6406 12.1875 25.039L13.8281 23.2031C15.1172 21.7578 17.3437 21.6015 18.789 22.8906C20.2343 24.1796 20.3906 26.4062 19.1015 27.8515L17.4218 29.6875C13.0078 34.6484 13.3593 39.4531 16.289 44.5312" fill="#EEEEEE"/>
<path d="M26.5704 18.3328C27.7159 18.3365 28.8134 18.7931 29.6235 19.6031C30.4335 20.4132 30.8901 21.5107 30.8938 22.6562H35.1562C35.1562 20.377 34.2508 18.1912 32.6392 16.5796C31.0276 14.9679 28.8417 14.0625 26.5625 14.0625C24.2833 14.0625 22.0974 14.9679 20.4858 16.5796C18.8742 18.1912 17.9688 20.377 17.9688 22.6562H22.247C22.2506 21.5107 22.7072 20.4132 23.5173 19.6031C24.3273 18.7931 25.4248 18.3365 26.5704 18.3328Z" fill="#4E0F8A"/>
<path d="M26.5722 26.9178C25.8733 26.9183 25.1848 26.7439 24.5666 26.4097C23.9485 26.0754 23.4194 25.5915 23.0254 25L19.5312 27.4451C20.3128 28.6161 21.3609 29.5744 22.5849 30.2373C23.809 30.9003 25.1723 31.2478 26.5568 31.25C27.9414 31.2522 29.3057 30.9089 30.5318 30.2498C31.7578 29.5907 32.8087 28.6356 33.5938 27.4671L30.1132 25.01C29.7181 25.5982 29.1894 26.0792 28.5725 26.4115C27.9557 26.7439 27.2692 26.9176 26.5722 26.9178Z" fill="#2DC28D"/>
<path d="M4.88288 49.6094C4.336 49.6094 3.86725 49.2578 3.75007 48.711C1.79694 40.2344 4.25788 32.2266 11.3282 24.2578L12.9688 22.4219C13.7891 21.4844 14.961 20.9375 16.211 20.8594C17.461 20.7813 18.6719 21.211 19.6094 22.0313C20.5469 22.8516 21.0938 24.0235 21.1719 25.2735C21.2501 26.5235 20.8204 27.7344 20.0001 28.6719L18.3204 30.4688C14.6485 34.6094 14.336 38.7891 17.3048 43.9453C17.6173 44.4922 17.4219 45.2344 16.8751 45.5469C16.3282 45.8594 15.586 45.6641 15.2735 45.1172C11.7579 39.0235 12.1485 33.8672 16.5626 28.9063L18.2032 27.0703C18.6329 26.6016 18.8282 26.0157 18.7891 25.3907C18.7501 24.7657 18.4766 24.1797 18.0079 23.7891C17.5391 23.3985 16.9532 23.1641 16.3282 23.2032C15.7032 23.2422 15.1173 23.5157 14.7266 23.9844L13.086 25.8203C6.56256 33.1641 4.25788 40.5078 6.05475 48.1641C6.211 48.7891 5.82038 49.4141 5.19538 49.5703C5.03913 49.6094 4.961 49.6094 4.88288 49.6094Z" fill="black" fill-opacity="0.6"/>
</svg>
