<svg width="20" height="30" viewBox="0 0 20 30" fill="none" xmlns="http://www.w3.org/2000/svg">
<path id="Vector" d="M16.0938 0.234375H3.90625C2.21875 0.234375 0.859375 1.59375 0.859375 3.28125V26.7188C0.859375 28.4062 2.21875 29.7656 3.90625 29.7656H16.0938C17.7812 29.7656 19.1406 28.4062 19.1406 26.7188V3.28125C19.1406 1.59375 17.7812 0.234375 16.0938 0.234375ZM17.7344 26.7188C17.7344 27.6328 17.0078 28.3594 16.0938 28.3594H3.90625C2.99219 28.3594 2.26562 27.6328 2.26562 26.7188V3.28125C2.26562 2.36719 2.99219 1.64062 3.90625 1.64062H5.78125V2.34375C5.78125 2.74219 6.08594 3.04688 6.48438 3.04688H13.5156C13.9141 3.04688 14.2188 2.74219 14.2188 2.34375V1.64062H16.0938C17.0078 1.64062 17.7344 2.36719 17.7344 3.28125V26.7188Z" fill="#5F5F5F"/>
</svg>
